<mxfile host="app.diagrams.net" modified="2021-08-18T05:35:52.802Z" agent="5.0 (Windows NT 10.0; Win64; x64) AppleWebKit/537.36 (KHTML, like Gecko) Chrome/92.0.4515.131 Safari/537.36" etag="GVkQjbVSv6pltULc5NBO" version="13.9.9" type="github">
  <diagram id="lBPotzf9oOKmBNPVl0v_" name="Page-1">
    <mxGraphModel dx="1021" dy="567" grid="1" gridSize="10" guides="1" tooltips="1" connect="1" arrows="1" fold="1" page="1" pageScale="1" pageWidth="850" pageHeight="1100" math="0" shadow="0">
      <root>
        <mxCell id="0" />
        <mxCell id="1" parent="0" />
        <mxCell id="9QMfmsS5-I_c7l254vAj-7" value="" style="edgeStyle=orthogonalEdgeStyle;rounded=0;orthogonalLoop=1;jettySize=auto;html=1;" edge="1" parent="1" source="9QMfmsS5-I_c7l254vAj-1" target="9QMfmsS5-I_c7l254vAj-6">
          <mxGeometry relative="1" as="geometry" />
        </mxCell>
        <mxCell id="9QMfmsS5-I_c7l254vAj-1" value="S0" style="rounded=0;whiteSpace=wrap;html=1;" vertex="1" parent="1">
          <mxGeometry x="240" y="90" width="120" height="60" as="geometry" />
        </mxCell>
        <mxCell id="9QMfmsS5-I_c7l254vAj-2" value="" style="endArrow=classic;html=1;" edge="1" parent="1">
          <mxGeometry width="50" height="50" relative="1" as="geometry">
            <mxPoint x="300" y="30" as="sourcePoint" />
            <mxPoint x="299.5" y="90" as="targetPoint" />
          </mxGeometry>
        </mxCell>
        <mxCell id="9QMfmsS5-I_c7l254vAj-3" value="Reset-b" style="text;html=1;strokeColor=none;fillColor=none;align=center;verticalAlign=middle;whiteSpace=wrap;rounded=0;" vertex="1" parent="1">
          <mxGeometry x="280" y="10" width="50" height="20" as="geometry" />
        </mxCell>
        <mxCell id="9QMfmsS5-I_c7l254vAj-4" value="000" style="text;html=1;strokeColor=none;fillColor=none;align=center;verticalAlign=middle;whiteSpace=wrap;rounded=0;" vertex="1" parent="1">
          <mxGeometry x="320" y="70" width="40" height="20" as="geometry" />
        </mxCell>
        <mxCell id="9QMfmsS5-I_c7l254vAj-9" value="" style="edgeStyle=orthogonalEdgeStyle;rounded=0;orthogonalLoop=1;jettySize=auto;html=1;" edge="1" parent="1" source="9QMfmsS5-I_c7l254vAj-6" target="9QMfmsS5-I_c7l254vAj-8">
          <mxGeometry relative="1" as="geometry" />
        </mxCell>
        <mxCell id="9QMfmsS5-I_c7l254vAj-11" style="edgeStyle=orthogonalEdgeStyle;rounded=0;orthogonalLoop=1;jettySize=auto;html=1;exitX=0;exitY=0.5;exitDx=0;exitDy=0;entryX=0;entryY=0.5;entryDx=0;entryDy=0;" edge="1" parent="1" source="9QMfmsS5-I_c7l254vAj-6" target="9QMfmsS5-I_c7l254vAj-1">
          <mxGeometry relative="1" as="geometry">
            <mxPoint x="180" y="120" as="targetPoint" />
          </mxGeometry>
        </mxCell>
        <mxCell id="9QMfmsS5-I_c7l254vAj-6" value="start" style="rhombus;whiteSpace=wrap;html=1;" vertex="1" parent="1">
          <mxGeometry x="260" y="200" width="80" height="80" as="geometry" />
        </mxCell>
        <mxCell id="9QMfmsS5-I_c7l254vAj-15" value="" style="edgeStyle=orthogonalEdgeStyle;rounded=0;orthogonalLoop=1;jettySize=auto;html=1;" edge="1" parent="1" source="9QMfmsS5-I_c7l254vAj-8" target="9QMfmsS5-I_c7l254vAj-14">
          <mxGeometry relative="1" as="geometry" />
        </mxCell>
        <mxCell id="9QMfmsS5-I_c7l254vAj-16" style="edgeStyle=orthogonalEdgeStyle;rounded=0;orthogonalLoop=1;jettySize=auto;html=1;exitX=1;exitY=0.5;exitDx=0;exitDy=0;entryX=1;entryY=0.5;entryDx=0;entryDy=0;" edge="1" parent="1" source="9QMfmsS5-I_c7l254vAj-8" target="9QMfmsS5-I_c7l254vAj-1">
          <mxGeometry relative="1" as="geometry" />
        </mxCell>
        <mxCell id="9QMfmsS5-I_c7l254vAj-8" value="Door" style="rhombus;whiteSpace=wrap;html=1;" vertex="1" parent="1">
          <mxGeometry x="400" y="200" width="80" height="80" as="geometry" />
        </mxCell>
        <mxCell id="9QMfmsS5-I_c7l254vAj-12" value="0" style="text;html=1;strokeColor=none;fillColor=none;align=center;verticalAlign=middle;whiteSpace=wrap;rounded=0;" vertex="1" parent="1">
          <mxGeometry x="220" y="220" width="40" height="20" as="geometry" />
        </mxCell>
        <mxCell id="9QMfmsS5-I_c7l254vAj-13" value="1" style="text;html=1;strokeColor=none;fillColor=none;align=center;verticalAlign=middle;whiteSpace=wrap;rounded=0;" vertex="1" parent="1">
          <mxGeometry x="340" y="220" width="40" height="20" as="geometry" />
        </mxCell>
        <mxCell id="9QMfmsS5-I_c7l254vAj-20" style="edgeStyle=orthogonalEdgeStyle;rounded=0;orthogonalLoop=1;jettySize=auto;html=1;exitX=1;exitY=0.5;exitDx=0;exitDy=0;entryX=0;entryY=1;entryDx=0;entryDy=0;" edge="1" parent="1" source="9QMfmsS5-I_c7l254vAj-14" target="9QMfmsS5-I_c7l254vAj-17">
          <mxGeometry relative="1" as="geometry" />
        </mxCell>
        <mxCell id="9QMfmsS5-I_c7l254vAj-24" value="" style="edgeStyle=orthogonalEdgeStyle;rounded=0;orthogonalLoop=1;jettySize=auto;html=1;" edge="1" parent="1" source="9QMfmsS5-I_c7l254vAj-14" target="9QMfmsS5-I_c7l254vAj-23">
          <mxGeometry relative="1" as="geometry" />
        </mxCell>
        <mxCell id="9QMfmsS5-I_c7l254vAj-14" value="Vave" style="rhombus;whiteSpace=wrap;html=1;" vertex="1" parent="1">
          <mxGeometry x="400" y="300" width="80" height="80" as="geometry" />
        </mxCell>
        <mxCell id="9QMfmsS5-I_c7l254vAj-17" value="0" style="text;html=1;strokeColor=none;fillColor=none;align=center;verticalAlign=middle;whiteSpace=wrap;rounded=0;" vertex="1" parent="1">
          <mxGeometry x="500" y="220" width="40" height="20" as="geometry" />
        </mxCell>
        <mxCell id="9QMfmsS5-I_c7l254vAj-19" value="1" style="text;html=1;strokeColor=none;fillColor=none;align=center;verticalAlign=middle;whiteSpace=wrap;rounded=0;" vertex="1" parent="1">
          <mxGeometry x="440" y="380" width="40" height="20" as="geometry" />
        </mxCell>
        <mxCell id="9QMfmsS5-I_c7l254vAj-21" value="0" style="text;html=1;strokeColor=none;fillColor=none;align=center;verticalAlign=middle;whiteSpace=wrap;rounded=0;" vertex="1" parent="1">
          <mxGeometry x="500" y="330" width="40" height="20" as="geometry" />
        </mxCell>
        <mxCell id="9QMfmsS5-I_c7l254vAj-27" value="" style="edgeStyle=orthogonalEdgeStyle;rounded=0;orthogonalLoop=1;jettySize=auto;html=1;" edge="1" parent="1" source="9QMfmsS5-I_c7l254vAj-23" target="9QMfmsS5-I_c7l254vAj-26">
          <mxGeometry relative="1" as="geometry" />
        </mxCell>
        <mxCell id="9QMfmsS5-I_c7l254vAj-23" value="S1&amp;nbsp; آبگیری" style="rounded=0;whiteSpace=wrap;html=1;" vertex="1" parent="1">
          <mxGeometry x="380" y="430" width="120" height="60" as="geometry" />
        </mxCell>
        <mxCell id="9QMfmsS5-I_c7l254vAj-25" value="001" style="text;html=1;strokeColor=none;fillColor=none;align=center;verticalAlign=middle;whiteSpace=wrap;rounded=0;" vertex="1" parent="1">
          <mxGeometry x="460" y="410" width="40" height="20" as="geometry" />
        </mxCell>
        <mxCell id="9QMfmsS5-I_c7l254vAj-29" value="" style="edgeStyle=orthogonalEdgeStyle;rounded=0;orthogonalLoop=1;jettySize=auto;html=1;" edge="1" parent="1" source="9QMfmsS5-I_c7l254vAj-26" target="9QMfmsS5-I_c7l254vAj-28">
          <mxGeometry relative="1" as="geometry" />
        </mxCell>
        <mxCell id="9QMfmsS5-I_c7l254vAj-32" value="" style="edgeStyle=orthogonalEdgeStyle;rounded=0;orthogonalLoop=1;jettySize=auto;html=1;" edge="1" parent="1" source="9QMfmsS5-I_c7l254vAj-26" target="9QMfmsS5-I_c7l254vAj-31">
          <mxGeometry relative="1" as="geometry" />
        </mxCell>
        <mxCell id="9QMfmsS5-I_c7l254vAj-26" value="Function" style="rhombus;whiteSpace=wrap;html=1;rounded=0;" vertex="1" parent="1">
          <mxGeometry x="220" y="420" width="80" height="80" as="geometry" />
        </mxCell>
        <mxCell id="9QMfmsS5-I_c7l254vAj-34" style="edgeStyle=orthogonalEdgeStyle;rounded=0;orthogonalLoop=1;jettySize=auto;html=1;exitX=0.5;exitY=1;exitDx=0;exitDy=0;entryX=0;entryY=0.5;entryDx=0;entryDy=0;" edge="1" parent="1" source="9QMfmsS5-I_c7l254vAj-28" target="9QMfmsS5-I_c7l254vAj-31">
          <mxGeometry relative="1" as="geometry" />
        </mxCell>
        <mxCell id="9QMfmsS5-I_c7l254vAj-28" value="S2&amp;nbsp; گرم کردن" style="whiteSpace=wrap;html=1;rounded=0;" vertex="1" parent="1">
          <mxGeometry x="40" y="430" width="120" height="60" as="geometry" />
        </mxCell>
        <mxCell id="9QMfmsS5-I_c7l254vAj-30" value="1" style="text;html=1;strokeColor=none;fillColor=none;align=center;verticalAlign=middle;whiteSpace=wrap;rounded=0;" vertex="1" parent="1">
          <mxGeometry x="180" y="440" width="40" height="20" as="geometry" />
        </mxCell>
        <mxCell id="9QMfmsS5-I_c7l254vAj-38" value="" style="edgeStyle=orthogonalEdgeStyle;rounded=0;orthogonalLoop=1;jettySize=auto;html=1;" edge="1" parent="1" source="9QMfmsS5-I_c7l254vAj-31" target="9QMfmsS5-I_c7l254vAj-37">
          <mxGeometry relative="1" as="geometry" />
        </mxCell>
        <mxCell id="9QMfmsS5-I_c7l254vAj-31" value="S3 شستشو" style="whiteSpace=wrap;html=1;rounded=0;" vertex="1" parent="1">
          <mxGeometry x="200" y="570" width="120" height="60" as="geometry" />
        </mxCell>
        <mxCell id="9QMfmsS5-I_c7l254vAj-33" value="0" style="text;html=1;strokeColor=none;fillColor=none;align=center;verticalAlign=middle;whiteSpace=wrap;rounded=0;" vertex="1" parent="1">
          <mxGeometry x="260" y="500" width="40" height="20" as="geometry" />
        </mxCell>
        <mxCell id="9QMfmsS5-I_c7l254vAj-35" value="010" style="text;html=1;strokeColor=none;fillColor=none;align=center;verticalAlign=middle;whiteSpace=wrap;rounded=0;" vertex="1" parent="1">
          <mxGeometry x="120" y="410" width="40" height="20" as="geometry" />
        </mxCell>
        <mxCell id="9QMfmsS5-I_c7l254vAj-36" value="011" style="text;html=1;strokeColor=none;fillColor=none;align=center;verticalAlign=middle;whiteSpace=wrap;rounded=0;" vertex="1" parent="1">
          <mxGeometry x="280" y="550" width="40" height="20" as="geometry" />
        </mxCell>
        <mxCell id="9QMfmsS5-I_c7l254vAj-41" value="" style="edgeStyle=orthogonalEdgeStyle;rounded=0;orthogonalLoop=1;jettySize=auto;html=1;" edge="1" parent="1" source="9QMfmsS5-I_c7l254vAj-37" target="9QMfmsS5-I_c7l254vAj-40">
          <mxGeometry relative="1" as="geometry" />
        </mxCell>
        <mxCell id="9QMfmsS5-I_c7l254vAj-37" value="S4 خشک کردن" style="whiteSpace=wrap;html=1;rounded=0;" vertex="1" parent="1">
          <mxGeometry x="350" y="570" width="120" height="60" as="geometry" />
        </mxCell>
        <mxCell id="9QMfmsS5-I_c7l254vAj-39" value="100" style="text;html=1;strokeColor=none;fillColor=none;align=center;verticalAlign=middle;whiteSpace=wrap;rounded=0;" vertex="1" parent="1">
          <mxGeometry x="430" y="550" width="40" height="20" as="geometry" />
        </mxCell>
        <mxCell id="9QMfmsS5-I_c7l254vAj-43" value="" style="edgeStyle=orthogonalEdgeStyle;rounded=0;orthogonalLoop=1;jettySize=auto;html=1;" edge="1" parent="1" source="9QMfmsS5-I_c7l254vAj-40" target="9QMfmsS5-I_c7l254vAj-42">
          <mxGeometry relative="1" as="geometry" />
        </mxCell>
        <mxCell id="9QMfmsS5-I_c7l254vAj-47" value="" style="edgeStyle=orthogonalEdgeStyle;rounded=0;orthogonalLoop=1;jettySize=auto;html=1;" edge="1" parent="1" source="9QMfmsS5-I_c7l254vAj-40" target="9QMfmsS5-I_c7l254vAj-46">
          <mxGeometry relative="1" as="geometry" />
        </mxCell>
        <mxCell id="9QMfmsS5-I_c7l254vAj-40" value="no spin" style="rhombus;whiteSpace=wrap;html=1;rounded=0;" vertex="1" parent="1">
          <mxGeometry x="520" y="560" width="80" height="80" as="geometry" />
        </mxCell>
        <mxCell id="9QMfmsS5-I_c7l254vAj-50" style="edgeStyle=orthogonalEdgeStyle;rounded=0;orthogonalLoop=1;jettySize=auto;html=1;exitX=0.5;exitY=1;exitDx=0;exitDy=0;entryX=1;entryY=0.5;entryDx=0;entryDy=0;" edge="1" parent="1" source="9QMfmsS5-I_c7l254vAj-42" target="9QMfmsS5-I_c7l254vAj-46">
          <mxGeometry relative="1" as="geometry" />
        </mxCell>
        <mxCell id="9QMfmsS5-I_c7l254vAj-42" value="S5 خشک کردن" style="whiteSpace=wrap;html=1;rounded=0;" vertex="1" parent="1">
          <mxGeometry x="660" y="570" width="120" height="60" as="geometry" />
        </mxCell>
        <mxCell id="9QMfmsS5-I_c7l254vAj-44" value="101" style="text;html=1;strokeColor=none;fillColor=none;align=center;verticalAlign=middle;whiteSpace=wrap;rounded=0;" vertex="1" parent="1">
          <mxGeometry x="740" y="550" width="40" height="20" as="geometry" />
        </mxCell>
        <mxCell id="9QMfmsS5-I_c7l254vAj-45" value="0" style="text;html=1;strokeColor=none;fillColor=none;align=center;verticalAlign=middle;whiteSpace=wrap;rounded=0;" vertex="1" parent="1">
          <mxGeometry x="600" y="580" width="40" height="20" as="geometry" />
        </mxCell>
        <mxCell id="9QMfmsS5-I_c7l254vAj-46" value="finish" style="whiteSpace=wrap;html=1;rounded=0;" vertex="1" parent="1">
          <mxGeometry x="500" y="730" width="120" height="60" as="geometry" />
        </mxCell>
        <mxCell id="9QMfmsS5-I_c7l254vAj-48" value="110" style="text;html=1;strokeColor=none;fillColor=none;align=center;verticalAlign=middle;whiteSpace=wrap;rounded=0;" vertex="1" parent="1">
          <mxGeometry x="580" y="710" width="40" height="20" as="geometry" />
        </mxCell>
        <mxCell id="9QMfmsS5-I_c7l254vAj-49" value="1" style="text;html=1;strokeColor=none;fillColor=none;align=center;verticalAlign=middle;whiteSpace=wrap;rounded=0;" vertex="1" parent="1">
          <mxGeometry x="550" y="660" width="40" height="20" as="geometry" />
        </mxCell>
      </root>
    </mxGraphModel>
  </diagram>
</mxfile>
